<mxfile host="app.diagrams.net" modified="2020-08-06T12:43:43.847Z" agent="5.0 (Windows NT 6.1) AppleWebKit/537.36 (KHTML, like Gecko) Chrome/84.0.4147.105 Safari/537.36" etag="6_xJCbjjwMa7wKeTW0ZO" version="13.5.9" type="github">
  <diagram id="feGqwJlz58I1b_uyRda3" name="Page-1">
    <mxGraphModel dx="1625" dy="803" grid="1" gridSize="10" guides="1" tooltips="1" connect="1" arrows="1" fold="1" page="1" pageScale="1" pageWidth="1169" pageHeight="1654" math="0" shadow="0">
      <root>
        <mxCell id="0" />
        <mxCell id="1" parent="0" />
        <mxCell id="ccqW8sLZz8sWvczQwnKs-1" value="" style="edgeStyle=orthogonalEdgeStyle;fontSize=12;html=1;endArrow=ERoneToMany;entryX=0;entryY=0.5;entryDx=0;entryDy=0;exitX=1;exitY=0.5;exitDx=0;exitDy=0;" parent="1" source="e8tBY_SiVbahdUhermiw-18" target="e8tBY_SiVbahdUhermiw-5" edge="1">
          <mxGeometry width="100" height="100" relative="1" as="geometry">
            <mxPoint x="464" y="887" as="sourcePoint" />
            <mxPoint x="564" y="787" as="targetPoint" />
          </mxGeometry>
        </mxCell>
        <mxCell id="D5typHG5cNRgZlipIlFW-92" value="" style="edgeStyle=orthogonalEdgeStyle;fontSize=12;html=1;endArrow=ERoneToMany;exitX=1;exitY=0.5;exitDx=0;exitDy=0;" edge="1" parent="1" source="e8tBY_SiVbahdUhermiw-462" target="e8tBY_SiVbahdUhermiw-469">
          <mxGeometry width="100" height="100" relative="1" as="geometry">
            <mxPoint x="690" y="882" as="sourcePoint" />
            <mxPoint x="790" y="782" as="targetPoint" />
          </mxGeometry>
        </mxCell>
        <mxCell id="D5typHG5cNRgZlipIlFW-93" value="" style="fontSize=12;html=1;endArrow=ERoneToMany;entryX=0.5;entryY=0;entryDx=0;entryDy=0;exitX=0.25;exitY=1;exitDx=0;exitDy=0;" edge="1" parent="1" source="e8tBY_SiVbahdUhermiw-1" target="e8tBY_SiVbahdUhermiw-465">
          <mxGeometry width="100" height="100" relative="1" as="geometry">
            <mxPoint x="730" y="864" as="sourcePoint" />
            <mxPoint x="830" y="764" as="targetPoint" />
          </mxGeometry>
        </mxCell>
        <mxCell id="D5typHG5cNRgZlipIlFW-94" value="" style="edgeStyle=orthogonalEdgeStyle;fontSize=12;html=1;endArrow=ERoneToMany;entryX=1;entryY=0.5;entryDx=0;entryDy=0;exitX=0.75;exitY=0;exitDx=0;exitDy=0;" edge="1" parent="1" source="D5typHG5cNRgZlipIlFW-74" target="e8tBY_SiVbahdUhermiw-11">
          <mxGeometry width="100" height="100" relative="1" as="geometry">
            <mxPoint x="930" y="749" as="sourcePoint" />
            <mxPoint x="1030" y="649" as="targetPoint" />
          </mxGeometry>
        </mxCell>
        <mxCell id="D5typHG5cNRgZlipIlFW-95" value="" style="fontSize=12;html=1;endArrow=ERoneToMany;exitX=1;exitY=1.15;exitDx=0;exitDy=0;exitPerimeter=0;entryX=0;entryY=0;entryDx=0;entryDy=0;" edge="1" parent="1" source="D5typHG5cNRgZlipIlFW-50" target="D5typHG5cNRgZlipIlFW-1">
          <mxGeometry width="100" height="100" relative="1" as="geometry">
            <mxPoint x="330" y="912" as="sourcePoint" />
            <mxPoint x="430" y="812" as="targetPoint" />
          </mxGeometry>
        </mxCell>
        <mxCell id="D5typHG5cNRgZlipIlFW-96" value="" style="fontSize=12;html=1;endArrow=ERmandOne;startArrow=ERmandOne;entryX=0.5;entryY=1;entryDx=0;entryDy=0;exitX=0.5;exitY=0;exitDx=0;exitDy=0;" edge="1" parent="1" source="e8tBY_SiVbahdUhermiw-27" target="D5typHG5cNRgZlipIlFW-14">
          <mxGeometry width="100" height="100" relative="1" as="geometry">
            <mxPoint x="50" y="772" as="sourcePoint" />
            <mxPoint x="150" y="672" as="targetPoint" />
          </mxGeometry>
        </mxCell>
        <mxCell id="D5typHG5cNRgZlipIlFW-98" value="" style="edgeStyle=orthogonalEdgeStyle;fontSize=12;html=1;endArrow=ERmandOne;startArrow=ERmandOne;entryX=0;entryY=0.5;entryDx=0;entryDy=0;exitX=1;exitY=0.5;exitDx=0;exitDy=0;" edge="1" parent="1" source="e8tBY_SiVbahdUhermiw-34" target="D5typHG5cNRgZlipIlFW-5">
          <mxGeometry width="100" height="100" relative="1" as="geometry">
            <mxPoint x="250" y="1022" as="sourcePoint" />
            <mxPoint x="350" y="922" as="targetPoint" />
          </mxGeometry>
        </mxCell>
        <mxCell id="D5typHG5cNRgZlipIlFW-99" value="" style="fontSize=12;html=1;endArrow=ERoneToMany;entryX=1;entryY=1;entryDx=0;entryDy=0;exitX=0;exitY=0;exitDx=0;exitDy=0;" edge="1" parent="1" source="D5typHG5cNRgZlipIlFW-40" target="D5typHG5cNRgZlipIlFW-14">
          <mxGeometry width="100" height="100" relative="1" as="geometry">
            <mxPoint x="180" y="772" as="sourcePoint" />
            <mxPoint x="280" y="672" as="targetPoint" />
          </mxGeometry>
        </mxCell>
        <mxCell id="D5typHG5cNRgZlipIlFW-100" value="" style="edgeStyle=orthogonalEdgeStyle;fontSize=12;html=1;endArrow=ERoneToMany;entryX=1;entryY=0.5;entryDx=0;entryDy=0;exitX=0;exitY=0.5;exitDx=0;exitDy=0;" edge="1" parent="1" source="e8tBY_SiVbahdUhermiw-15" target="D5typHG5cNRgZlipIlFW-15">
          <mxGeometry width="100" height="100" relative="1" as="geometry">
            <mxPoint x="290" y="672" as="sourcePoint" />
            <mxPoint x="390" y="572" as="targetPoint" />
          </mxGeometry>
        </mxCell>
        <mxCell id="D5typHG5cNRgZlipIlFW-101" value="" style="edgeStyle=orthogonalEdgeStyle;fontSize=12;html=1;endArrow=ERoneToMany;entryX=0.706;entryY=-0.021;entryDx=0;entryDy=0;entryPerimeter=0;exitX=0.5;exitY=1;exitDx=0;exitDy=0;" edge="1" parent="1" source="e8tBY_SiVbahdUhermiw-14" target="D5typHG5cNRgZlipIlFW-1">
          <mxGeometry width="100" height="100" relative="1" as="geometry">
            <mxPoint x="580" y="862" as="sourcePoint" />
            <mxPoint x="584" y="882" as="targetPoint" />
          </mxGeometry>
        </mxCell>
        <mxCell id="e8tBY_SiVbahdUhermiw-14" value="pertanyaan" style="shape=table;startSize=30;container=1;collapsible=1;childLayout=tableLayout;fixedRows=1;rowLines=0;fontStyle=1;align=center;resizeLast=1;" parent="1" vertex="1">
          <mxGeometry x="460" y="652" width="180" height="210" as="geometry" />
        </mxCell>
        <mxCell id="e8tBY_SiVbahdUhermiw-15" value="" style="shape=partialRectangle;collapsible=0;dropTarget=0;pointerEvents=0;fillColor=none;top=0;left=0;bottom=1;right=0;points=[[0,0.5],[1,0.5]];portConstraint=eastwest;" parent="e8tBY_SiVbahdUhermiw-14" vertex="1">
          <mxGeometry y="30" width="180" height="50" as="geometry" />
        </mxCell>
        <mxCell id="e8tBY_SiVbahdUhermiw-16" value="PK" style="shape=partialRectangle;connectable=0;fillColor=none;top=0;left=0;bottom=0;right=0;fontStyle=1;overflow=hidden;" parent="e8tBY_SiVbahdUhermiw-15" vertex="1">
          <mxGeometry width="30" height="50" as="geometry" />
        </mxCell>
        <mxCell id="e8tBY_SiVbahdUhermiw-17" value="pertanyaan_id INT" style="shape=partialRectangle;connectable=0;fillColor=none;top=0;left=0;bottom=0;right=0;align=left;spacingLeft=6;fontStyle=5;overflow=hidden;" parent="e8tBY_SiVbahdUhermiw-15" vertex="1">
          <mxGeometry x="30" width="150" height="50" as="geometry" />
        </mxCell>
        <mxCell id="e8tBY_SiVbahdUhermiw-18" value="" style="shape=partialRectangle;collapsible=0;dropTarget=0;pointerEvents=0;fillColor=none;top=0;left=0;bottom=0;right=0;points=[[0,0.5],[1,0.5]];portConstraint=eastwest;" parent="e8tBY_SiVbahdUhermiw-14" vertex="1">
          <mxGeometry y="80" width="180" height="30" as="geometry" />
        </mxCell>
        <mxCell id="e8tBY_SiVbahdUhermiw-19" value="" style="shape=partialRectangle;connectable=0;fillColor=none;top=0;left=0;bottom=0;right=0;editable=1;overflow=hidden;" parent="e8tBY_SiVbahdUhermiw-18" vertex="1">
          <mxGeometry width="30" height="30" as="geometry" />
        </mxCell>
        <mxCell id="e8tBY_SiVbahdUhermiw-20" value="judul VARCHAR(45)" style="shape=partialRectangle;connectable=0;fillColor=none;top=0;left=0;bottom=0;right=0;align=left;spacingLeft=6;overflow=hidden;" parent="e8tBY_SiVbahdUhermiw-18" vertex="1">
          <mxGeometry x="30" width="150" height="30" as="geometry" />
        </mxCell>
        <mxCell id="e8tBY_SiVbahdUhermiw-21" value="" style="shape=partialRectangle;collapsible=0;dropTarget=0;pointerEvents=0;fillColor=none;top=0;left=0;bottom=0;right=0;points=[[0,0.5],[1,0.5]];portConstraint=eastwest;" parent="e8tBY_SiVbahdUhermiw-14" vertex="1">
          <mxGeometry y="110" width="180" height="30" as="geometry" />
        </mxCell>
        <mxCell id="e8tBY_SiVbahdUhermiw-22" value="" style="shape=partialRectangle;connectable=0;fillColor=none;top=0;left=0;bottom=0;right=0;editable=1;overflow=hidden;" parent="e8tBY_SiVbahdUhermiw-21" vertex="1">
          <mxGeometry width="30" height="30" as="geometry" />
        </mxCell>
        <mxCell id="e8tBY_SiVbahdUhermiw-23" value="isi VARCHAR(45)" style="shape=partialRectangle;connectable=0;fillColor=none;top=0;left=0;bottom=0;right=0;align=left;spacingLeft=6;overflow=hidden;" parent="e8tBY_SiVbahdUhermiw-21" vertex="1">
          <mxGeometry x="30" width="150" height="30" as="geometry" />
        </mxCell>
        <mxCell id="e8tBY_SiVbahdUhermiw-24" value="" style="shape=partialRectangle;collapsible=0;dropTarget=0;pointerEvents=0;fillColor=none;top=0;left=0;bottom=0;right=0;points=[[0,0.5],[1,0.5]];portConstraint=eastwest;" parent="e8tBY_SiVbahdUhermiw-14" vertex="1">
          <mxGeometry y="140" width="180" height="30" as="geometry" />
        </mxCell>
        <mxCell id="e8tBY_SiVbahdUhermiw-25" value="" style="shape=partialRectangle;connectable=0;fillColor=none;top=0;left=0;bottom=0;right=0;editable=1;overflow=hidden;" parent="e8tBY_SiVbahdUhermiw-24" vertex="1">
          <mxGeometry width="30" height="30" as="geometry" />
        </mxCell>
        <mxCell id="e8tBY_SiVbahdUhermiw-26" value="tanggal_dibuat DATE" style="shape=partialRectangle;connectable=0;fillColor=none;top=0;left=0;bottom=0;right=0;align=left;spacingLeft=6;overflow=hidden;" parent="e8tBY_SiVbahdUhermiw-24" vertex="1">
          <mxGeometry x="30" width="150" height="30" as="geometry" />
        </mxCell>
        <mxCell id="e8tBY_SiVbahdUhermiw-462" value="" style="shape=partialRectangle;collapsible=0;dropTarget=0;pointerEvents=0;fillColor=none;top=0;left=0;bottom=0;right=0;points=[[0,0.5],[1,0.5]];portConstraint=eastwest;" parent="e8tBY_SiVbahdUhermiw-14" vertex="1">
          <mxGeometry y="170" width="180" height="30" as="geometry" />
        </mxCell>
        <mxCell id="e8tBY_SiVbahdUhermiw-463" value="" style="shape=partialRectangle;connectable=0;fillColor=none;top=0;left=0;bottom=0;right=0;editable=1;overflow=hidden;" parent="e8tBY_SiVbahdUhermiw-462" vertex="1">
          <mxGeometry width="30" height="30" as="geometry" />
        </mxCell>
        <mxCell id="e8tBY_SiVbahdUhermiw-464" value="tanggal_diperbaharui DATE" style="shape=partialRectangle;connectable=0;fillColor=none;top=0;left=0;bottom=0;right=0;align=left;spacingLeft=6;overflow=hidden;" parent="e8tBY_SiVbahdUhermiw-462" vertex="1">
          <mxGeometry x="30" width="150" height="30" as="geometry" />
        </mxCell>
        <mxCell id="D5typHG5cNRgZlipIlFW-14" value="like" style="shape=table;startSize=30;container=1;collapsible=1;childLayout=tableLayout;fixedRows=1;rowLines=0;fontStyle=1;align=center;resizeLast=1;" vertex="1" parent="1">
          <mxGeometry x="90" y="542" width="180" height="130" as="geometry" />
        </mxCell>
        <mxCell id="D5typHG5cNRgZlipIlFW-15" value="" style="shape=partialRectangle;collapsible=0;dropTarget=0;pointerEvents=0;fillColor=none;top=0;left=0;bottom=1;right=0;points=[[0,0.5],[1,0.5]];portConstraint=eastwest;" vertex="1" parent="D5typHG5cNRgZlipIlFW-14">
          <mxGeometry y="30" width="180" height="30" as="geometry" />
        </mxCell>
        <mxCell id="D5typHG5cNRgZlipIlFW-16" value="PK" style="shape=partialRectangle;connectable=0;fillColor=none;top=0;left=0;bottom=0;right=0;fontStyle=1;overflow=hidden;" vertex="1" parent="D5typHG5cNRgZlipIlFW-15">
          <mxGeometry width="30" height="30" as="geometry" />
        </mxCell>
        <mxCell id="D5typHG5cNRgZlipIlFW-17" value="like_id INT" style="shape=partialRectangle;connectable=0;fillColor=none;top=0;left=0;bottom=0;right=0;align=left;spacingLeft=6;fontStyle=5;overflow=hidden;" vertex="1" parent="D5typHG5cNRgZlipIlFW-15">
          <mxGeometry x="30" width="150" height="30" as="geometry" />
        </mxCell>
        <mxCell id="D5typHG5cNRgZlipIlFW-21" value="" style="shape=partialRectangle;collapsible=0;dropTarget=0;pointerEvents=0;fillColor=none;top=0;left=0;bottom=0;right=0;points=[[0,0.5],[1,0.5]];portConstraint=eastwest;" vertex="1" parent="D5typHG5cNRgZlipIlFW-14">
          <mxGeometry y="60" width="180" height="30" as="geometry" />
        </mxCell>
        <mxCell id="D5typHG5cNRgZlipIlFW-22" value="" style="shape=partialRectangle;connectable=0;fillColor=none;top=0;left=0;bottom=0;right=0;editable=1;overflow=hidden;" vertex="1" parent="D5typHG5cNRgZlipIlFW-21">
          <mxGeometry width="30" height="30" as="geometry" />
        </mxCell>
        <mxCell id="D5typHG5cNRgZlipIlFW-23" value="pertanyaan_judul_id INT" style="shape=partialRectangle;connectable=0;fillColor=none;top=0;left=0;bottom=0;right=0;align=left;spacingLeft=6;overflow=hidden;" vertex="1" parent="D5typHG5cNRgZlipIlFW-21">
          <mxGeometry x="30" width="150" height="30" as="geometry" />
        </mxCell>
        <mxCell id="D5typHG5cNRgZlipIlFW-24" value="" style="shape=partialRectangle;collapsible=0;dropTarget=0;pointerEvents=0;fillColor=none;top=0;left=0;bottom=0;right=0;points=[[0,0.5],[1,0.5]];portConstraint=eastwest;" vertex="1" parent="D5typHG5cNRgZlipIlFW-14">
          <mxGeometry y="90" width="180" height="30" as="geometry" />
        </mxCell>
        <mxCell id="D5typHG5cNRgZlipIlFW-25" value="" style="shape=partialRectangle;connectable=0;fillColor=none;top=0;left=0;bottom=0;right=0;editable=1;overflow=hidden;" vertex="1" parent="D5typHG5cNRgZlipIlFW-24">
          <mxGeometry width="30" height="30" as="geometry" />
        </mxCell>
        <mxCell id="D5typHG5cNRgZlipIlFW-26" value="vote_vote_id INT" style="shape=partialRectangle;connectable=0;fillColor=none;top=0;left=0;bottom=0;right=0;align=left;spacingLeft=6;overflow=hidden;" vertex="1" parent="D5typHG5cNRgZlipIlFW-24">
          <mxGeometry x="30" width="150" height="30" as="geometry" />
        </mxCell>
        <mxCell id="e8tBY_SiVbahdUhermiw-465" value="komentar" style="shape=table;startSize=30;container=1;collapsible=1;childLayout=tableLayout;fixedRows=1;rowLines=0;fontStyle=1;align=center;resizeLast=1;" parent="1" vertex="1">
          <mxGeometry x="720" y="912" width="250" height="240" as="geometry" />
        </mxCell>
        <mxCell id="e8tBY_SiVbahdUhermiw-466" value="" style="shape=partialRectangle;collapsible=0;dropTarget=0;pointerEvents=0;fillColor=none;top=0;left=0;bottom=1;right=0;points=[[0,0.5],[1,0.5]];portConstraint=eastwest;" parent="e8tBY_SiVbahdUhermiw-465" vertex="1">
          <mxGeometry y="30" width="250" height="50" as="geometry" />
        </mxCell>
        <mxCell id="e8tBY_SiVbahdUhermiw-467" value="PK" style="shape=partialRectangle;connectable=0;fillColor=none;top=0;left=0;bottom=0;right=0;fontStyle=1;overflow=hidden;" parent="e8tBY_SiVbahdUhermiw-466" vertex="1">
          <mxGeometry width="30" height="50" as="geometry" />
        </mxCell>
        <mxCell id="e8tBY_SiVbahdUhermiw-468" value="komentar_id INT" style="shape=partialRectangle;connectable=0;fillColor=none;top=0;left=0;bottom=0;right=0;align=left;spacingLeft=6;fontStyle=5;overflow=hidden;" parent="e8tBY_SiVbahdUhermiw-466" vertex="1">
          <mxGeometry x="30" width="220" height="50" as="geometry" />
        </mxCell>
        <mxCell id="e8tBY_SiVbahdUhermiw-469" value="" style="shape=partialRectangle;collapsible=0;dropTarget=0;pointerEvents=0;fillColor=none;top=0;left=0;bottom=0;right=0;points=[[0,0.5],[1,0.5]];portConstraint=eastwest;" parent="e8tBY_SiVbahdUhermiw-465" vertex="1">
          <mxGeometry y="80" width="250" height="30" as="geometry" />
        </mxCell>
        <mxCell id="e8tBY_SiVbahdUhermiw-470" value="" style="shape=partialRectangle;connectable=0;fillColor=none;top=0;left=0;bottom=0;right=0;editable=1;overflow=hidden;" parent="e8tBY_SiVbahdUhermiw-469" vertex="1">
          <mxGeometry width="30" height="30" as="geometry" />
        </mxCell>
        <mxCell id="e8tBY_SiVbahdUhermiw-471" value="isi VARCHAR(45)" style="shape=partialRectangle;connectable=0;fillColor=none;top=0;left=0;bottom=0;right=0;align=left;spacingLeft=6;overflow=hidden;" parent="e8tBY_SiVbahdUhermiw-469" vertex="1">
          <mxGeometry x="30" width="220" height="30" as="geometry" />
        </mxCell>
        <mxCell id="e8tBY_SiVbahdUhermiw-472" value="" style="shape=partialRectangle;collapsible=0;dropTarget=0;pointerEvents=0;fillColor=none;top=0;left=0;bottom=0;right=0;points=[[0,0.5],[1,0.5]];portConstraint=eastwest;" parent="e8tBY_SiVbahdUhermiw-465" vertex="1">
          <mxGeometry y="110" width="250" height="30" as="geometry" />
        </mxCell>
        <mxCell id="e8tBY_SiVbahdUhermiw-473" value="" style="shape=partialRectangle;connectable=0;fillColor=none;top=0;left=0;bottom=0;right=0;editable=1;overflow=hidden;" parent="e8tBY_SiVbahdUhermiw-472" vertex="1">
          <mxGeometry width="30" height="30" as="geometry" />
        </mxCell>
        <mxCell id="e8tBY_SiVbahdUhermiw-474" value="tanggal_dibuat DATE" style="shape=partialRectangle;connectable=0;fillColor=none;top=0;left=0;bottom=0;right=0;align=left;spacingLeft=6;overflow=hidden;" parent="e8tBY_SiVbahdUhermiw-472" vertex="1">
          <mxGeometry x="30" width="220" height="30" as="geometry" />
        </mxCell>
        <mxCell id="e8tBY_SiVbahdUhermiw-475" value="" style="shape=partialRectangle;collapsible=0;dropTarget=0;pointerEvents=0;fillColor=none;top=0;left=0;bottom=0;right=0;points=[[0,0.5],[1,0.5]];portConstraint=eastwest;" parent="e8tBY_SiVbahdUhermiw-465" vertex="1">
          <mxGeometry y="140" width="250" height="30" as="geometry" />
        </mxCell>
        <mxCell id="e8tBY_SiVbahdUhermiw-476" value="" style="shape=partialRectangle;connectable=0;fillColor=none;top=0;left=0;bottom=0;right=0;editable=1;overflow=hidden;" parent="e8tBY_SiVbahdUhermiw-475" vertex="1">
          <mxGeometry width="30" height="30" as="geometry" />
        </mxCell>
        <mxCell id="e8tBY_SiVbahdUhermiw-477" value="pemberi_komentar_id VARCHAR(45)" style="shape=partialRectangle;connectable=0;fillColor=none;top=0;left=0;bottom=0;right=0;align=left;spacingLeft=6;overflow=hidden;" parent="e8tBY_SiVbahdUhermiw-475" vertex="1">
          <mxGeometry x="30" width="220" height="30" as="geometry" />
        </mxCell>
        <mxCell id="D5typHG5cNRgZlipIlFW-18" value="" style="shape=partialRectangle;collapsible=0;dropTarget=0;pointerEvents=0;fillColor=none;top=0;left=0;bottom=0;right=0;points=[[0,0.5],[1,0.5]];portConstraint=eastwest;" vertex="1" parent="e8tBY_SiVbahdUhermiw-465">
          <mxGeometry y="170" width="250" height="30" as="geometry" />
        </mxCell>
        <mxCell id="D5typHG5cNRgZlipIlFW-19" value="" style="shape=partialRectangle;connectable=0;fillColor=none;top=0;left=0;bottom=0;right=0;editable=1;overflow=hidden;" vertex="1" parent="D5typHG5cNRgZlipIlFW-18">
          <mxGeometry width="30" height="30" as="geometry" />
        </mxCell>
        <mxCell id="D5typHG5cNRgZlipIlFW-20" value="pertanyaan_pertanyaan_id INT" style="shape=partialRectangle;connectable=0;fillColor=none;top=0;left=0;bottom=0;right=0;align=left;spacingLeft=6;overflow=hidden;" vertex="1" parent="D5typHG5cNRgZlipIlFW-18">
          <mxGeometry x="30" width="220" height="30" as="geometry" />
        </mxCell>
        <mxCell id="D5typHG5cNRgZlipIlFW-47" value="" style="shape=partialRectangle;collapsible=0;dropTarget=0;pointerEvents=0;fillColor=none;top=0;left=0;bottom=0;right=0;points=[[0,0.5],[1,0.5]];portConstraint=eastwest;" vertex="1" parent="e8tBY_SiVbahdUhermiw-465">
          <mxGeometry y="200" width="250" height="30" as="geometry" />
        </mxCell>
        <mxCell id="D5typHG5cNRgZlipIlFW-48" value="" style="shape=partialRectangle;connectable=0;fillColor=none;top=0;left=0;bottom=0;right=0;editable=1;overflow=hidden;" vertex="1" parent="D5typHG5cNRgZlipIlFW-47">
          <mxGeometry width="30" height="30" as="geometry" />
        </mxCell>
        <mxCell id="D5typHG5cNRgZlipIlFW-49" value="jawaban_jawaban_id INT" style="shape=partialRectangle;connectable=0;fillColor=none;top=0;left=0;bottom=0;right=0;align=left;spacingLeft=6;overflow=hidden;" vertex="1" parent="D5typHG5cNRgZlipIlFW-47">
          <mxGeometry x="30" width="220" height="30" as="geometry" />
        </mxCell>
        <mxCell id="e8tBY_SiVbahdUhermiw-1" value="jawaban" style="shape=table;startSize=30;container=1;collapsible=1;childLayout=tableLayout;fixedRows=1;rowLines=0;fontStyle=1;align=center;resizeLast=1;" parent="1" vertex="1">
          <mxGeometry x="790" y="502" width="220" height="240" as="geometry" />
        </mxCell>
        <mxCell id="e8tBY_SiVbahdUhermiw-2" value="" style="shape=partialRectangle;collapsible=0;dropTarget=0;pointerEvents=0;fillColor=none;top=0;left=0;bottom=1;right=0;points=[[0,0.5],[1,0.5]];portConstraint=eastwest;" parent="e8tBY_SiVbahdUhermiw-1" vertex="1">
          <mxGeometry y="30" width="220" height="50" as="geometry" />
        </mxCell>
        <mxCell id="e8tBY_SiVbahdUhermiw-3" value="PK" style="shape=partialRectangle;connectable=0;fillColor=none;top=0;left=0;bottom=0;right=0;fontStyle=1;overflow=hidden;" parent="e8tBY_SiVbahdUhermiw-2" vertex="1">
          <mxGeometry width="30" height="50" as="geometry" />
        </mxCell>
        <mxCell id="e8tBY_SiVbahdUhermiw-4" value="jawaban_id INT" style="shape=partialRectangle;connectable=0;fillColor=none;top=0;left=0;bottom=0;right=0;align=left;spacingLeft=6;fontStyle=5;overflow=hidden;" parent="e8tBY_SiVbahdUhermiw-2" vertex="1">
          <mxGeometry x="30" width="190" height="50" as="geometry" />
        </mxCell>
        <mxCell id="e8tBY_SiVbahdUhermiw-5" value="" style="shape=partialRectangle;collapsible=0;dropTarget=0;pointerEvents=0;fillColor=none;top=0;left=0;bottom=0;right=0;points=[[0,0.5],[1,0.5]];portConstraint=eastwest;" parent="e8tBY_SiVbahdUhermiw-1" vertex="1">
          <mxGeometry y="80" width="220" height="30" as="geometry" />
        </mxCell>
        <mxCell id="e8tBY_SiVbahdUhermiw-6" value="" style="shape=partialRectangle;connectable=0;fillColor=none;top=0;left=0;bottom=0;right=0;editable=1;overflow=hidden;" parent="e8tBY_SiVbahdUhermiw-5" vertex="1">
          <mxGeometry width="30" height="30" as="geometry" />
        </mxCell>
        <mxCell id="e8tBY_SiVbahdUhermiw-7" value="isi VARCHAR(255)" style="shape=partialRectangle;connectable=0;fillColor=none;top=0;left=0;bottom=0;right=0;align=left;spacingLeft=6;overflow=hidden;" parent="e8tBY_SiVbahdUhermiw-5" vertex="1">
          <mxGeometry x="30" width="190" height="30" as="geometry" />
        </mxCell>
        <mxCell id="e8tBY_SiVbahdUhermiw-8" value="" style="shape=partialRectangle;collapsible=0;dropTarget=0;pointerEvents=0;fillColor=none;top=0;left=0;bottom=0;right=0;points=[[0,0.5],[1,0.5]];portConstraint=eastwest;" parent="e8tBY_SiVbahdUhermiw-1" vertex="1">
          <mxGeometry y="110" width="220" height="30" as="geometry" />
        </mxCell>
        <mxCell id="e8tBY_SiVbahdUhermiw-9" value="" style="shape=partialRectangle;connectable=0;fillColor=none;top=0;left=0;bottom=0;right=0;editable=1;overflow=hidden;" parent="e8tBY_SiVbahdUhermiw-8" vertex="1">
          <mxGeometry width="30" height="30" as="geometry" />
        </mxCell>
        <mxCell id="e8tBY_SiVbahdUhermiw-10" value="tanggal_dibuat DATE" style="shape=partialRectangle;connectable=0;fillColor=none;top=0;left=0;bottom=0;right=0;align=left;spacingLeft=6;overflow=hidden;" parent="e8tBY_SiVbahdUhermiw-8" vertex="1">
          <mxGeometry x="30" width="190" height="30" as="geometry" />
        </mxCell>
        <mxCell id="e8tBY_SiVbahdUhermiw-11" value="" style="shape=partialRectangle;collapsible=0;dropTarget=0;pointerEvents=0;fillColor=none;top=0;left=0;bottom=0;right=0;points=[[0,0.5],[1,0.5]];portConstraint=eastwest;" parent="e8tBY_SiVbahdUhermiw-1" vertex="1">
          <mxGeometry y="140" width="220" height="30" as="geometry" />
        </mxCell>
        <mxCell id="e8tBY_SiVbahdUhermiw-12" value="" style="shape=partialRectangle;connectable=0;fillColor=none;top=0;left=0;bottom=0;right=0;editable=1;overflow=hidden;" parent="e8tBY_SiVbahdUhermiw-11" vertex="1">
          <mxGeometry width="30" height="30" as="geometry" />
        </mxCell>
        <mxCell id="e8tBY_SiVbahdUhermiw-13" value="tanggal_diperbaharui DATE" style="shape=partialRectangle;connectable=0;fillColor=none;top=0;left=0;bottom=0;right=0;align=left;spacingLeft=6;overflow=hidden;" parent="e8tBY_SiVbahdUhermiw-11" vertex="1">
          <mxGeometry x="30" width="190" height="30" as="geometry" />
        </mxCell>
        <mxCell id="D5typHG5cNRgZlipIlFW-11" value="" style="shape=partialRectangle;collapsible=0;dropTarget=0;pointerEvents=0;fillColor=none;top=0;left=0;bottom=0;right=0;points=[[0,0.5],[1,0.5]];portConstraint=eastwest;" vertex="1" parent="e8tBY_SiVbahdUhermiw-1">
          <mxGeometry y="170" width="220" height="30" as="geometry" />
        </mxCell>
        <mxCell id="D5typHG5cNRgZlipIlFW-12" value="" style="shape=partialRectangle;connectable=0;fillColor=none;top=0;left=0;bottom=0;right=0;editable=1;overflow=hidden;" vertex="1" parent="D5typHG5cNRgZlipIlFW-11">
          <mxGeometry width="30" height="30" as="geometry" />
        </mxCell>
        <mxCell id="D5typHG5cNRgZlipIlFW-13" value="pertanyaan_pertanyaan_id INT" style="shape=partialRectangle;connectable=0;fillColor=none;top=0;left=0;bottom=0;right=0;align=left;spacingLeft=6;overflow=hidden;" vertex="1" parent="D5typHG5cNRgZlipIlFW-11">
          <mxGeometry x="30" width="190" height="30" as="geometry" />
        </mxCell>
        <mxCell id="D5typHG5cNRgZlipIlFW-44" value="" style="shape=partialRectangle;collapsible=0;dropTarget=0;pointerEvents=0;fillColor=none;top=0;left=0;bottom=0;right=0;points=[[0,0.5],[1,0.5]];portConstraint=eastwest;" vertex="1" parent="e8tBY_SiVbahdUhermiw-1">
          <mxGeometry y="200" width="220" height="30" as="geometry" />
        </mxCell>
        <mxCell id="D5typHG5cNRgZlipIlFW-45" value="" style="shape=partialRectangle;connectable=0;fillColor=none;top=0;left=0;bottom=0;right=0;editable=1;overflow=hidden;" vertex="1" parent="D5typHG5cNRgZlipIlFW-44">
          <mxGeometry width="30" height="30" as="geometry" />
        </mxCell>
        <mxCell id="D5typHG5cNRgZlipIlFW-46" value="jawab_tepat_jawab_benar_id INT" style="shape=partialRectangle;connectable=0;fillColor=none;top=0;left=0;bottom=0;right=0;align=left;spacingLeft=6;overflow=hidden;" vertex="1" parent="D5typHG5cNRgZlipIlFW-44">
          <mxGeometry x="30" width="190" height="30" as="geometry" />
        </mxCell>
        <mxCell id="D5typHG5cNRgZlipIlFW-1" value="dislike" style="shape=table;startSize=30;container=1;collapsible=1;childLayout=tableLayout;fixedRows=1;rowLines=0;fontStyle=1;align=center;resizeLast=1;" vertex="1" parent="1">
          <mxGeometry x="380" y="934.5" width="170" height="120" as="geometry" />
        </mxCell>
        <mxCell id="D5typHG5cNRgZlipIlFW-2" value="" style="shape=partialRectangle;collapsible=0;dropTarget=0;pointerEvents=0;fillColor=none;top=0;left=0;bottom=1;right=0;points=[[0,0.5],[1,0.5]];portConstraint=eastwest;" vertex="1" parent="D5typHG5cNRgZlipIlFW-1">
          <mxGeometry y="30" width="170" height="30" as="geometry" />
        </mxCell>
        <mxCell id="D5typHG5cNRgZlipIlFW-3" value="PK" style="shape=partialRectangle;connectable=0;fillColor=none;top=0;left=0;bottom=0;right=0;fontStyle=1;overflow=hidden;" vertex="1" parent="D5typHG5cNRgZlipIlFW-2">
          <mxGeometry width="30" height="30" as="geometry" />
        </mxCell>
        <mxCell id="D5typHG5cNRgZlipIlFW-4" value="dislike_id INT" style="shape=partialRectangle;connectable=0;fillColor=none;top=0;left=0;bottom=0;right=0;align=left;spacingLeft=6;fontStyle=5;overflow=hidden;" vertex="1" parent="D5typHG5cNRgZlipIlFW-2">
          <mxGeometry x="30" width="140" height="30" as="geometry" />
        </mxCell>
        <mxCell id="D5typHG5cNRgZlipIlFW-5" value="" style="shape=partialRectangle;collapsible=0;dropTarget=0;pointerEvents=0;fillColor=none;top=0;left=0;bottom=0;right=0;points=[[0,0.5],[1,0.5]];portConstraint=eastwest;" vertex="1" parent="D5typHG5cNRgZlipIlFW-1">
          <mxGeometry y="60" width="170" height="30" as="geometry" />
        </mxCell>
        <mxCell id="D5typHG5cNRgZlipIlFW-6" value="" style="shape=partialRectangle;connectable=0;fillColor=none;top=0;left=0;bottom=0;right=0;editable=1;overflow=hidden;" vertex="1" parent="D5typHG5cNRgZlipIlFW-5">
          <mxGeometry width="30" height="30" as="geometry" />
        </mxCell>
        <mxCell id="D5typHG5cNRgZlipIlFW-7" value="pertanyaan_judul_id INT" style="shape=partialRectangle;connectable=0;fillColor=none;top=0;left=0;bottom=0;right=0;align=left;spacingLeft=6;overflow=hidden;" vertex="1" parent="D5typHG5cNRgZlipIlFW-5">
          <mxGeometry x="30" width="140" height="30" as="geometry" />
        </mxCell>
        <mxCell id="D5typHG5cNRgZlipIlFW-8" value="" style="shape=partialRectangle;collapsible=0;dropTarget=0;pointerEvents=0;fillColor=none;top=0;left=0;bottom=0;right=0;points=[[0,0.5],[1,0.5]];portConstraint=eastwest;" vertex="1" parent="D5typHG5cNRgZlipIlFW-1">
          <mxGeometry y="90" width="170" height="30" as="geometry" />
        </mxCell>
        <mxCell id="D5typHG5cNRgZlipIlFW-9" value="" style="shape=partialRectangle;connectable=0;fillColor=none;top=0;left=0;bottom=0;right=0;editable=1;overflow=hidden;" vertex="1" parent="D5typHG5cNRgZlipIlFW-8">
          <mxGeometry width="30" height="30" as="geometry" />
        </mxCell>
        <mxCell id="D5typHG5cNRgZlipIlFW-10" value="vote_vote_id INT" style="shape=partialRectangle;connectable=0;fillColor=none;top=0;left=0;bottom=0;right=0;align=left;spacingLeft=6;overflow=hidden;" vertex="1" parent="D5typHG5cNRgZlipIlFW-8">
          <mxGeometry x="30" width="140" height="30" as="geometry" />
        </mxCell>
        <mxCell id="e8tBY_SiVbahdUhermiw-27" value="profile" style="shape=table;startSize=30;container=1;collapsible=1;childLayout=tableLayout;fixedRows=1;rowLines=0;fontStyle=1;align=center;resizeLast=1;" parent="1" vertex="1">
          <mxGeometry x="80" y="882" width="200" height="225" as="geometry" />
        </mxCell>
        <mxCell id="e8tBY_SiVbahdUhermiw-28" value="" style="shape=partialRectangle;collapsible=0;dropTarget=0;pointerEvents=0;fillColor=none;top=0;left=0;bottom=1;right=0;points=[[0,0.5],[1,0.5]];portConstraint=eastwest;" parent="e8tBY_SiVbahdUhermiw-27" vertex="1">
          <mxGeometry y="30" width="200" height="35" as="geometry" />
        </mxCell>
        <mxCell id="e8tBY_SiVbahdUhermiw-29" value="PK" style="shape=partialRectangle;connectable=0;fillColor=none;top=0;left=0;bottom=0;right=0;fontStyle=1;overflow=hidden;" parent="e8tBY_SiVbahdUhermiw-28" vertex="1">
          <mxGeometry width="30" height="35" as="geometry" />
        </mxCell>
        <mxCell id="e8tBY_SiVbahdUhermiw-30" value="profile_id INT" style="shape=partialRectangle;connectable=0;fillColor=none;top=0;left=0;bottom=0;right=0;align=left;spacingLeft=6;fontStyle=5;overflow=hidden;" parent="e8tBY_SiVbahdUhermiw-28" vertex="1">
          <mxGeometry x="30" width="170" height="35" as="geometry" />
        </mxCell>
        <mxCell id="e8tBY_SiVbahdUhermiw-31" value="" style="shape=partialRectangle;collapsible=0;dropTarget=0;pointerEvents=0;fillColor=none;top=0;left=0;bottom=0;right=0;points=[[0,0.5],[1,0.5]];portConstraint=eastwest;" parent="e8tBY_SiVbahdUhermiw-27" vertex="1">
          <mxGeometry y="65" width="200" height="30" as="geometry" />
        </mxCell>
        <mxCell id="e8tBY_SiVbahdUhermiw-32" value="" style="shape=partialRectangle;connectable=0;fillColor=none;top=0;left=0;bottom=0;right=0;editable=1;overflow=hidden;" parent="e8tBY_SiVbahdUhermiw-31" vertex="1">
          <mxGeometry width="30" height="30" as="geometry" />
        </mxCell>
        <mxCell id="e8tBY_SiVbahdUhermiw-33" value="nama_lengkap VARCHAR(45)" style="shape=partialRectangle;connectable=0;fillColor=none;top=0;left=0;bottom=0;right=0;align=left;spacingLeft=6;overflow=hidden;" parent="e8tBY_SiVbahdUhermiw-31" vertex="1">
          <mxGeometry x="30" width="170" height="30" as="geometry" />
        </mxCell>
        <mxCell id="e8tBY_SiVbahdUhermiw-34" value="" style="shape=partialRectangle;collapsible=0;dropTarget=0;pointerEvents=0;fillColor=none;top=0;left=0;bottom=0;right=0;points=[[0,0.5],[1,0.5]];portConstraint=eastwest;" parent="e8tBY_SiVbahdUhermiw-27" vertex="1">
          <mxGeometry y="95" width="200" height="30" as="geometry" />
        </mxCell>
        <mxCell id="e8tBY_SiVbahdUhermiw-35" value="" style="shape=partialRectangle;connectable=0;fillColor=none;top=0;left=0;bottom=0;right=0;editable=1;overflow=hidden;" parent="e8tBY_SiVbahdUhermiw-34" vertex="1">
          <mxGeometry width="30" height="30" as="geometry" />
        </mxCell>
        <mxCell id="e8tBY_SiVbahdUhermiw-36" value="alamat_email VARCHAR(45)" style="shape=partialRectangle;connectable=0;fillColor=none;top=0;left=0;bottom=0;right=0;align=left;spacingLeft=6;overflow=hidden;" parent="e8tBY_SiVbahdUhermiw-34" vertex="1">
          <mxGeometry x="30" width="170" height="30" as="geometry" />
        </mxCell>
        <mxCell id="e8tBY_SiVbahdUhermiw-37" value="" style="shape=partialRectangle;collapsible=0;dropTarget=0;pointerEvents=0;fillColor=none;top=0;left=0;bottom=0;right=0;points=[[0,0.5],[1,0.5]];portConstraint=eastwest;" parent="e8tBY_SiVbahdUhermiw-27" vertex="1">
          <mxGeometry y="125" width="200" height="30" as="geometry" />
        </mxCell>
        <mxCell id="e8tBY_SiVbahdUhermiw-38" value="" style="shape=partialRectangle;connectable=0;fillColor=none;top=0;left=0;bottom=0;right=0;editable=1;overflow=hidden;" parent="e8tBY_SiVbahdUhermiw-37" vertex="1">
          <mxGeometry width="30" height="30" as="geometry" />
        </mxCell>
        <mxCell id="e8tBY_SiVbahdUhermiw-39" value="photo VARCHAR(45)" style="shape=partialRectangle;connectable=0;fillColor=none;top=0;left=0;bottom=0;right=0;align=left;spacingLeft=6;overflow=hidden;" parent="e8tBY_SiVbahdUhermiw-37" vertex="1">
          <mxGeometry x="30" width="170" height="30" as="geometry" />
        </mxCell>
        <mxCell id="D5typHG5cNRgZlipIlFW-58" value="" style="shape=partialRectangle;collapsible=0;dropTarget=0;pointerEvents=0;fillColor=none;top=0;left=0;bottom=0;right=0;points=[[0,0.5],[1,0.5]];portConstraint=eastwest;" vertex="1" parent="e8tBY_SiVbahdUhermiw-27">
          <mxGeometry y="155" width="200" height="30" as="geometry" />
        </mxCell>
        <mxCell id="D5typHG5cNRgZlipIlFW-59" value="" style="shape=partialRectangle;connectable=0;fillColor=none;top=0;left=0;bottom=0;right=0;editable=1;overflow=hidden;" vertex="1" parent="D5typHG5cNRgZlipIlFW-58">
          <mxGeometry width="30" height="30" as="geometry" />
        </mxCell>
        <mxCell id="D5typHG5cNRgZlipIlFW-60" value="like_like_id INT" style="shape=partialRectangle;connectable=0;fillColor=none;top=0;left=0;bottom=0;right=0;align=left;spacingLeft=6;overflow=hidden;" vertex="1" parent="D5typHG5cNRgZlipIlFW-58">
          <mxGeometry x="30" width="170" height="30" as="geometry" />
        </mxCell>
        <mxCell id="D5typHG5cNRgZlipIlFW-54" value="" style="shape=partialRectangle;collapsible=0;dropTarget=0;pointerEvents=0;fillColor=none;top=0;left=0;bottom=0;right=0;points=[[0,0.5],[1,0.5]];portConstraint=eastwest;" vertex="1" parent="e8tBY_SiVbahdUhermiw-27">
          <mxGeometry y="185" width="200" height="30" as="geometry" />
        </mxCell>
        <mxCell id="D5typHG5cNRgZlipIlFW-55" value="" style="shape=partialRectangle;connectable=0;fillColor=none;top=0;left=0;bottom=0;right=0;editable=1;overflow=hidden;" vertex="1" parent="D5typHG5cNRgZlipIlFW-54">
          <mxGeometry width="30" height="30" as="geometry" />
        </mxCell>
        <mxCell id="D5typHG5cNRgZlipIlFW-56" value="dislike_dislike_id INT" style="shape=partialRectangle;connectable=0;fillColor=none;top=0;left=0;bottom=0;right=0;align=left;spacingLeft=6;overflow=hidden;" vertex="1" parent="D5typHG5cNRgZlipIlFW-54">
          <mxGeometry x="30" width="170" height="30" as="geometry" />
        </mxCell>
        <mxCell id="D5typHG5cNRgZlipIlFW-40" value="vote" style="shape=table;startSize=30;container=1;collapsible=1;childLayout=tableLayout;fixedRows=1;rowLines=0;fontStyle=1;align=center;resizeLast=1;" vertex="1" parent="1">
          <mxGeometry x="270" y="742" width="110" height="80" as="geometry" />
        </mxCell>
        <mxCell id="D5typHG5cNRgZlipIlFW-41" value="" style="shape=partialRectangle;collapsible=0;dropTarget=0;pointerEvents=0;fillColor=none;top=0;left=0;bottom=1;right=0;points=[[0,0.5],[1,0.5]];portConstraint=eastwest;" vertex="1" parent="D5typHG5cNRgZlipIlFW-40">
          <mxGeometry y="30" width="110" height="30" as="geometry" />
        </mxCell>
        <mxCell id="D5typHG5cNRgZlipIlFW-42" value="PK" style="shape=partialRectangle;connectable=0;fillColor=none;top=0;left=0;bottom=0;right=0;fontStyle=1;overflow=hidden;" vertex="1" parent="D5typHG5cNRgZlipIlFW-41">
          <mxGeometry width="30" height="30" as="geometry" />
        </mxCell>
        <mxCell id="D5typHG5cNRgZlipIlFW-43" value="vote_id INT" style="shape=partialRectangle;connectable=0;fillColor=none;top=0;left=0;bottom=0;right=0;align=left;spacingLeft=6;fontStyle=5;overflow=hidden;" vertex="1" parent="D5typHG5cNRgZlipIlFW-41">
          <mxGeometry x="30" width="80" height="30" as="geometry" />
        </mxCell>
        <mxCell id="D5typHG5cNRgZlipIlFW-50" value="" style="shape=partialRectangle;collapsible=0;dropTarget=0;pointerEvents=0;fillColor=none;top=0;left=0;bottom=0;right=0;points=[[0,0.5],[1,0.5]];portConstraint=eastwest;" vertex="1" parent="D5typHG5cNRgZlipIlFW-40">
          <mxGeometry y="60" width="110" height="20" as="geometry" />
        </mxCell>
        <mxCell id="D5typHG5cNRgZlipIlFW-51" value="" style="shape=partialRectangle;connectable=0;fillColor=none;top=0;left=0;bottom=0;right=0;editable=1;overflow=hidden;" vertex="1" parent="D5typHG5cNRgZlipIlFW-50">
          <mxGeometry width="30" height="20" as="geometry" />
        </mxCell>
        <mxCell id="D5typHG5cNRgZlipIlFW-52" value="" style="shape=partialRectangle;connectable=0;fillColor=none;top=0;left=0;bottom=0;right=0;align=left;spacingLeft=6;overflow=hidden;" vertex="1" parent="D5typHG5cNRgZlipIlFW-50">
          <mxGeometry x="30" width="80" height="20" as="geometry" />
        </mxCell>
        <mxCell id="D5typHG5cNRgZlipIlFW-74" value="jawab_tepat" style="shape=table;startSize=30;container=1;collapsible=1;childLayout=tableLayout;fixedRows=1;rowLines=0;fontStyle=1;align=center;resizeLast=1;" vertex="1" parent="1">
          <mxGeometry x="910" y="792" width="180" height="70" as="geometry" />
        </mxCell>
        <mxCell id="D5typHG5cNRgZlipIlFW-75" value="" style="shape=partialRectangle;collapsible=0;dropTarget=0;pointerEvents=0;fillColor=none;top=0;left=0;bottom=1;right=0;points=[[0,0.5],[1,0.5]];portConstraint=eastwest;" vertex="1" parent="D5typHG5cNRgZlipIlFW-74">
          <mxGeometry y="30" width="180" height="30" as="geometry" />
        </mxCell>
        <mxCell id="D5typHG5cNRgZlipIlFW-76" value="PK" style="shape=partialRectangle;connectable=0;fillColor=none;top=0;left=0;bottom=0;right=0;fontStyle=1;overflow=hidden;" vertex="1" parent="D5typHG5cNRgZlipIlFW-75">
          <mxGeometry width="30" height="30" as="geometry" />
        </mxCell>
        <mxCell id="D5typHG5cNRgZlipIlFW-77" value="jawab_benar_id  INT" style="shape=partialRectangle;connectable=0;fillColor=none;top=0;left=0;bottom=0;right=0;align=left;spacingLeft=6;fontStyle=5;overflow=hidden;" vertex="1" parent="D5typHG5cNRgZlipIlFW-75">
          <mxGeometry x="30" width="150" height="30" as="geometry" />
        </mxCell>
      </root>
    </mxGraphModel>
  </diagram>
</mxfile>
